<svg xmlns="http://www.w3.org/2000/svg" viewBox="0 0 500 500"><g id="freepik--background-simple--inject-26"><path d="M97.55,174c37.5-25.74,92.7,3.84,125.9-25.32,20.45-18,21.88-45.46,34.84-66.89,11.43-18.9,33.42-27.53,54.6-28.47,43.78-1.93,99.79,26.75,98.72,76.55-1,47.12-61,56.48-62.92,105.58-1.7,44.29,40.77,81.43-10.82,114.17-39.05,24.79-91.63,13-112.08-29.72-10.88-22.72-14.65-39.25-40.87-50-22.57-9.21-45-1.81-68.07-6.3C71.12,254.7,58.12,201,97.55,174Z" style="fill:#E86565"></path><path d="M97.55,174c37.5-25.74,92.7,3.84,125.9-25.32,20.45-18,21.88-45.46,34.84-66.89,11.43-18.9,33.42-27.53,54.6-28.47,43.78-1.93,99.79,26.75,98.72,76.55-1,47.12-61,56.48-62.92,105.58-1.7,44.29,40.77,81.43-10.82,114.17-39.05,24.79-91.63,13-112.08-29.72-10.88-22.72-14.65-39.25-40.87-50-22.57-9.21-45-1.81-68.07-6.3C71.12,254.7,58.12,201,97.55,174Z" style="fill:#fff;opacity:0.9"></path></g><g id="freepik--Shadow--inject-26"><ellipse cx="250" cy="416.24" rx="193.89" ry="11.32" style="fill:#f5f5f5"></ellipse></g><g id="freepik--Character--inject-26"><path d="M276.44,170.82l.65.55c.24.21.51.41.77.61.52.41,1,.82,1.6,1.21,1.08.79,2.23,1.51,3.38,2.23a50.75,50.75,0,0,0,7.27,3.71,55.45,55.45,0,0,0,7.73,2.64c.66.18,1.34.3,2,.45l1,.22c.21,0,0,0,0,.05a1.1,1.1,0,0,0-.38.17c-.09.09-.09.09-.05.07a3.72,3.72,0,0,0,.46-.95,15.42,15.42,0,0,0,.65-3.55c.12-1.31.16-2.69.15-4.08,0-2.79-.22-5.64-.44-8.5s-.57-5.73-.94-8.61-.78-5.76-1.21-8.6l3.76-.86a159.32,159.32,0,0,1,4,17.36,84.71,84.71,0,0,1,1.09,9,45.23,45.23,0,0,1,.11,4.68,21.81,21.81,0,0,1-.65,5.11,9.89,9.89,0,0,1-1.36,3,6.53,6.53,0,0,1-1.59,1.61,5.83,5.83,0,0,1-2.39,1,6.74,6.74,0,0,1-2.24,0l-1.15-.19c-.77-.13-1.55-.23-2.31-.4a56.37,56.37,0,0,1-9-2.58,57.55,57.55,0,0,1-8.45-4.06c-1.35-.81-2.67-1.66-3.95-2.59-.64-.46-1.27-1-1.9-1.44-.31-.26-.62-.51-.93-.79s-.6-.51-1-.89Z" style="fill:#e4897b"></path><path d="M265.57,166.27c11-1.49,19.84,7.38,19.84,7.38l-10.06,15.52s-10.78-6.9-12.68-11.6C260.71,172.68,259.94,167,265.57,166.27Z" style="fill:#E86565"></path><path d="M265.57,166.27c11-1.49,19.84,7.38,19.84,7.38l-10.06,15.52s-10.78-6.9-12.68-11.6C260.71,172.68,259.94,167,265.57,166.27Z" style="fill:#fafafa;opacity:0.6000000000000001"></path><path d="M299.17,149.79l-3.65-7.32,9.57-.08s.19,5.11-2.23,8Z" style="fill:#e4897b"></path><polygon points="297.22 134.6 304.34 135.87 305.09 142.39 295.52 142.47 297.22 134.6" style="fill:#e4897b"></polygon><polygon points="226.67 407.87 235.63 408.73 241.83 387.69 232.87 386.82 226.67 407.87" style="fill:#e4897b"></polygon><polygon points="169.7 376.75 176.34 382.99 190.68 367.23 184.04 360.99 169.7 376.75" style="fill:#e4897b"></polygon><path d="M179.41,380l-5-9a.73.73,0,0,0-.9-.33l-7.69,2.92a1.48,1.48,0,0,0-.71,2.08c1.79,3.1,2.82,4.51,5,8.46,1.35,2.44,4,8,5.85,11.38s5.28,1.69,4.81.13c-2.14-7-1.73-10.93-1.13-14A2.4,2.4,0,0,0,179.41,380Z" style="fill:#263238"></path><path d="M236.68,406H225.82a.89.89,0,0,0-.85.66l-2.37,8.59a1.36,1.36,0,0,0,1.33,1.72c3.83,0,5.64,0,10.42,0h14.59c4,0,4.8-4,3.16-4.38-7.36-1.62-11.61-3.87-13.88-6A2.26,2.26,0,0,0,236.68,406Z" style="fill:#263238"></path><polygon points="241.83 387.69 238.63 398.54 229.41 398.54 232.86 386.83 241.83 387.69" style="fill:#ce6f64"></polygon><polygon points="184.03 361 190.68 367.23 183.28 375.35 176.64 369.12 184.03 361" style="fill:#ce6f64"></polygon><path d="M276.41,160.06c-.07-7.27-6.65-9.81-6.65-9.81s8.23-15.58,4-25.92-18.17-12.16-22.59-7.33c-7.77-.33-10.24,10.83-10.24,10.83s-6.5,1.09-8.25,5.82,3.58,10.06,3.58,10.06-7.42,1-10.15,6.71-1.05,13.29,7.15,19.83c11.92,9.5,33.83-2.42,33.83-2.42S276.49,168.42,276.41,160.06Z" style="fill:#263238"></path><path d="M275,167.29s4,1.75-9.36,54.52l-37-3.21c1.92-15,2.75-24.32-1.78-55.88a109,109,0,0,1,15.91-.71,119.11,119.11,0,0,1,16.82,1.45A158.55,158.55,0,0,1,275,167.29Z" style="fill:#E86565"></path><path d="M275,167.29s4,1.75-9.36,54.52l-37-3.21c1.92-15,2.75-24.32-1.78-55.88a109,109,0,0,1,15.91-.71,119.11,119.11,0,0,1,16.82,1.45A158.55,158.55,0,0,1,275,167.29Z" style="fill:#fafafa;opacity:0.6000000000000001"></path><path d="M265.41,164.71c-1.92-.46-4-.9-5.9-1.25A119.11,119.11,0,0,0,242.69,162c-1.93-.07-3.86-.07-5.67,0l1.24,2.36c.22.42,5.5,10.27,15.53,15.86l2.76,1.54,2.57-1.83C265.6,175.3,266.56,169.28,265.41,164.71Z" style="fill:#fafafa"></path><path d="M246,143.21c.59,5.51.79,15.52-3.3,18.8,0,0,4.68,8.89,13.54,13.82,7.84-5.58,3.28-12.37,3.28-12.37-5.91-2-5.37-6.42-4-10.54Z" style="fill:#e4897b"></path><path d="M249.89,147.17l5.66,5.75a17.5,17.5,0,0,0-.78,2.94c-2.27-.53-5.57-2.9-5.61-5.34A9.84,9.84,0,0,1,249.89,147.17Z" style="fill:#ce6f64"></path><path d="M245.76,130.71c-1.09,9-1.74,12.81,1.93,18.22,5.52,8.12,16.84,7.48,20.59-1,3.38-7.66,4.59-21.12-3.5-26.27A12.39,12.39,0,0,0,245.76,130.71Z" style="fill:#e4897b"></path><path d="M252.74,119.62c6.95,1.8.08,22.94-11,16.81,0,0,.5-8.93,3.58-12.72A11.5,11.5,0,0,1,252.74,119.62Z" style="fill:#263238"></path><path d="M252,120.79c3,4.88,25.25,14.13,17.77,3.63S252,120.79,252,120.79Z" style="fill:#263238"></path><path d="M242.9,138.5a6.68,6.68,0,0,0,1.59,4.82c1.54,1.75,3.57.69,4.21-1.43.57-1.9.46-5.1-1.59-6.08A3,3,0,0,0,242.9,138.5Z" style="fill:#e4897b"></path><path d="M265.6,221.81s12.53,55.44,4.17,94.52c-5.6,26.18-25.81,79.06-25.81,79.06l-15.8-.4s15.29-55.5,18.46-77.32c5.41-37.34-8.14-98.21-8.14-98.21Z" style="fill:#263238"></path><path d="M251.15,233l-7.9,12.46a381.36,381.36,0,0,1,4.52,44.63C258.88,270.2,253.62,243.53,251.15,233Z" style="fill:#263238"></path><polygon points="245.26 396.21 225.74 395.71 226.87 389.72 248.18 390.73 245.26 396.21" style="fill:#E86565"></polygon><polygon points="245.26 396.21 225.74 395.71 226.87 389.72 248.18 390.73 245.26 396.21" style="fill:#fafafa;opacity:0.6000000000000001"></polygon><path d="M257.5,221.21s-7.35,58.8-23.29,90.9C221.34,338,187,375,187,375l-8.78-9.05s23.2-40.11,32.77-57.34c23.46-42.23,4.28-74.45,17.58-90Z" style="fill:#263238"></path><polygon points="187.88 376.16 176.54 365.11 180.31 359.99 192.66 372.76 187.88 376.16" style="fill:#E86565"></polygon><polygon points="187.88 376.16 176.54 365.11 180.31 359.99 192.66 372.76 187.88 376.16" style="fill:#fafafa;opacity:0.6000000000000001"></polygon><path d="M228.19,216.38l-1.95,3.17c-.16.25.13.54.55.57l38.85,3.36c.34,0,.63-.11.67-.32l.62-3.28c0-.23-.23-.45-.6-.48l-37.51-3.25A.68.68,0,0,0,228.19,216.38Z" style="fill:#E86565"></path><path d="M228.19,216.38l-1.95,3.17c-.16.25.13.54.55.57l38.85,3.36c.34,0,.63-.11.67-.32l.62-3.28c0-.23-.23-.45-.6-.48l-37.51-3.25A.68.68,0,0,0,228.19,216.38Z" style="opacity:0.30000000000000004"></path><path d="M232.87,221l-1-.09c-.2,0-.34-.13-.32-.26l.85-4.26c0-.13.21-.22.41-.2l1,.09c.2,0,.34.13.32.26l-.84,4.26C233.25,220.94,233.07,221,232.87,221Z" style="fill:#263238"></path><path d="M262.79,223.6l-1-.09c-.2,0-.34-.13-.32-.26l.85-4.27c0-.12.21-.21.41-.19l1,.09c.2,0,.34.13.32.25l-.84,4.27C263.17,223.53,263,223.61,262.79,223.6Z" style="fill:#263238"></path><path d="M247.83,222.3l-1-.08c-.2,0-.34-.14-.32-.26l.85-4.27c0-.12.21-.21.41-.19l1,.08c.2,0,.34.14.32.26l-.84,4.27C248.21,222.23,248,222.32,247.83,222.3Z" style="fill:#263238"></path><path d="M258.83,135.68c-.13.72.15,1.38.62,1.47s1-.43,1.1-1.16-.14-1.39-.62-1.47S259,135,258.83,135.68Z" style="fill:#263238"></path><path d="M267,137.18c-.13.72.15,1.38.62,1.47s1-.43,1.1-1.16-.14-1.39-.62-1.47S267.18,136.45,267,137.18Z" style="fill:#263238"></path><path d="M267.93,136l1.83-.18S268.62,137,267.93,136Z" style="fill:#263238"></path><path d="M264.64,138a20,20,0,0,0,1.75,5.11,3.17,3.17,0,0,1-2.68,0Z" style="fill:#de5753"></path><path d="M260.67,145.51h0a6.17,6.17,0,0,1-4.58-3.35.18.18,0,0,1,.1-.23.17.17,0,0,1,.23.09,5.88,5.88,0,0,0,4.31,3.13.18.18,0,0,1,0,.36Z" style="fill:#263238"></path><path d="M256.88,130a.36.36,0,0,1-.22-.65,4.22,4.22,0,0,1,3.81-.77.36.36,0,0,1,.22.46.36.36,0,0,1-.46.22,3.49,3.49,0,0,0-3.13.66A.4.4,0,0,1,256.88,130Z" style="fill:#263238"></path><path d="M271.68,134.42a.37.37,0,0,1-.28-.13,3.54,3.54,0,0,0-2.9-1.37.37.37,0,0,1-.4-.32.35.35,0,0,1,.32-.39,4.21,4.21,0,0,1,3.54,1.62.37.37,0,0,1,0,.51A.4.4,0,0,1,271.68,134.42Z" style="fill:#263238"></path><path d="M229.59,176a89.89,89.89,0,0,1-5,8.68c-1.8,2.76-3.7,5.46-5.75,8.06a86.54,86.54,0,0,1-6.65,7.45c-1.22,1.15-2.41,2.32-3.72,3.4l-1,.82-.24.2-.32.25a7.37,7.37,0,0,1-.66.48,12.29,12.29,0,0,1-2.94,1.48,15,15,0,0,1-6.09.67,23.64,23.64,0,0,1-5.4-1.19,42,42,0,0,1-9.19-4.53,84.71,84.71,0,0,1-15.14-12.54l2.66-2.79c2.39,1.92,4.91,3.83,7.49,5.56a76.8,76.8,0,0,0,7.88,4.84,41.6,41.6,0,0,0,8.16,3.41c2.7.75,5.41.88,7.28.1a8,8,0,0,0,2.77-2c1.11-1,2.14-2.11,3.19-3.19,2.05-2.23,3.95-4.62,5.82-7s3.56-5,5.2-7.6c.83-1.3,1.62-2.62,2.4-3.94s1.53-2.71,2.18-3.95Z" style="fill:#e4897b"></path><path d="M172.68,187.63l-3.56-7.36-5.92,7.52s3.92,3.27,7.73,3.15Z" style="fill:#e4897b"></path><polygon points="165.23 178.12 161.88 184.53 163.2 187.79 169.12 180.27 165.23 178.12" style="fill:#e4897b"></polygon><path d="M226.78,162.72c-4.54.8-10.91,13.83-10.91,13.83l12.47,11.27s8.08-10.85,7.6-16.77C235.53,166,232.56,161.7,226.78,162.72Z" style="fill:#E86565"></path><path d="M226.78,162.72c-4.54.8-10.91,13.83-10.91,13.83l12.47,11.27s8.08-10.85,7.6-16.77C235.53,166,232.56,161.7,226.78,162.72Z" style="fill:#fafafa;opacity:0.6000000000000001"></path><path d="M181.16,384.83a1,1,0,0,1-.35-.06c-1.09-.36-1.8-2.37-2.13-3.54a.18.18,0,0,1,.06-.19.2.2,0,0,1,.2,0c.33.17,3.23,1.73,3.32,2.87a.67.67,0,0,1-.31.64A1.3,1.3,0,0,1,181.16,384.83Zm-2-3.28c.5,1.61,1.15,2.67,1.77,2.88a.85.85,0,0,0,.82-.19.33.33,0,0,0,.16-.32C181.85,383.22,180.15,382.11,179.15,381.55Z" style="fill:#E86565"></path><path d="M181.61,382a6.5,6.5,0,0,1-2.85-.67.16.16,0,0,1-.09-.15.18.18,0,0,1,.1-.16c.09,0,2.39-1.31,3.63-.87a1.07,1.07,0,0,1,.67.64.72.72,0,0,1-.16.89A2.1,2.1,0,0,1,181.61,382Zm-2.36-.82c1,.42,2.89.68,3.43.22.09-.07.17-.2.06-.48a.73.73,0,0,0-.46-.43C181.43,380.19,179.9,380.86,179.25,381.18Z" style="fill:#E86565"></path><path d="M241.5,407.76a14.7,14.7,0,0,1-3-.38.18.18,0,0,1-.14-.16.17.17,0,0,1,.1-.18c.45-.21,4.38-2,5.38-1.36a.61.61,0,0,1,.26.56,1.35,1.35,0,0,1-.54,1A3.6,3.6,0,0,1,241.5,407.76Zm-2.34-.62c1.17.22,3.33.5,4.22-.17a1,1,0,0,0,.4-.75.26.26,0,0,0-.1-.24C243.12,405.6,240.79,406.42,239.16,407.14Z" style="fill:#E86565"></path><path d="M238.58,407.38a.16.16,0,0,1-.12,0,.19.19,0,0,1-.06-.18c0-.16.94-4.05,3.07-3.8.54.06.68.33.71.54.14,1-2.35,3-3.53,3.47Zm2.7-3.67c-1.37,0-2.16,2.26-2.43,3.17,1.29-.68,3.06-2.3,3-2.93,0-.05,0-.19-.39-.23Z" style="fill:#E86565"></path><path d="M259.72,134.52l1.83-.19S260.41,135.53,259.72,134.52Z" style="fill:#263238"></path><path d="M184.49,77.53,155.18,267,320.1,292.48,349.41,103ZM252.25,185.3A38.72,38.72,0,1,1,296.43,153,38.72,38.72,0,0,1,252.25,185.3Z" style="fill:#E86565;opacity:0.6000000000000001"></path><path d="M315.12,285.29l-.25,0L149.7,259.7l0-.25L179.09,69.76l.24,0L344.5,95.35l0,.25Zm-164.85-26L314.7,284.72l29.23-189L179.5,70.33Z" style="fill:#E86565;opacity:0.30000000000000004;mix-blend-mode:multiply"></path><path d="M258.19,187.26a40.47,40.47,0,0,1-6.17-.48h0a40.16,40.16,0,1,1,6.17.48Zm-5.71-3.44a37.21,37.21,0,1,0-31.09-42.47,37.26,37.26,0,0,0,31.09,42.47Z" style="fill:#fafafa"></path><rect x="183.2" y="194.18" width="36.76" height="8.26" transform="translate(32.69 -28.49) rotate(8.79)" style="fill:#E86565"></rect><rect x="183.2" y="194.18" width="36.76" height="8.26" transform="translate(32.69 -28.49) rotate(8.79)" style="fill:#fafafa;opacity:0.6000000000000001"></rect><rect x="224.38" y="199.63" width="24.87" height="8.26" transform="translate(33.94 -33.81) rotate(8.79)" style="fill:#E86565"></rect><rect x="224.38" y="199.63" width="24.87" height="8.26" transform="translate(33.94 -33.81) rotate(8.79)" style="fill:#fafafa;opacity:0.6000000000000001"></rect><rect x="180.07" y="218.07" width="132.93" height="8.26" transform="translate(36.87 -35.08) rotate(8.79)" style="fill:#fafafa"></rect><rect x="177.78" y="230.32" width="66.1" height="8.26" transform="matrix(0.99, 0.15, -0.15, 0.99, 38.32, -29.48)" style="fill:#fafafa"></rect><rect x="254.41" y="240.48" width="44.22" height="8.26" transform="translate(40.65 -39.4) rotate(8.79)" style="fill:#fafafa"></rect><rect x="174.86" y="250.75" width="106.27" height="8.26" transform="translate(41.65 -31.86) rotate(8.79)" style="fill:#fafafa"></rect><path d="M351.17,292.48h-1a29.86,29.86,0,0,0-.91-7.36l1-.24A30.78,30.78,0,0,1,351.17,292.48Zm-3.92-12.92A30.36,30.36,0,0,0,337.58,268l.58-.81a31.44,31.44,0,0,1,10,11.92Z" style="fill:#E86565"></path><path d="M351.17,292.48h-1a29.86,29.86,0,0,0-.91-7.36l1-.24A30.78,30.78,0,0,1,351.17,292.48Zm-3.92-12.92A30.36,30.36,0,0,0,337.58,268l.58-.81a31.44,31.44,0,0,1,10,11.92Z" style="fill:#fafafa;opacity:0.6000000000000001"></path><path d="M320.1,264.91a27.57,27.57,0,1,0,27.57,27.57A27.57,27.57,0,0,0,320.1,264.91Zm0,51.57a24,24,0,1,1,24-24A24,24,0,0,1,320.1,316.48Z" style="fill:#E86565"></path><path d="M320.1,264.91a27.57,27.57,0,1,0,27.57,27.57A27.57,27.57,0,0,0,320.1,264.91Zm0,51.57a24,24,0,1,1,24-24A24,24,0,0,1,320.1,316.48Z" style="fill:#fafafa;opacity:0.6000000000000001"></path><circle cx="320.1" cy="292.48" r="23.99" style="fill:#E86565"></circle><circle cx="320.1" cy="292.48" r="23.99" style="opacity:0.2"></circle><polygon points="316.37 307.66 302.29 293.58 305.83 290.05 316.37 300.59 334.38 282.58 337.91 286.12 316.37 307.66" style="fill:#fafafa"></polygon></g></svg>